<svg width="522" height="96" viewBox="0 0 522 96" fill="none" xmlns="http://www.w3.org/2000/svg">
<g clip-path="url(#clip0_1538_53562)">
<path d="M492.466 -11.658C492.466 -18.7999 486.68 -24.5895 479.543 -24.5895C472.405 -24.5895 466.619 -18.7999 466.619 -11.658C466.619 -4.51619 472.405 1.27344 479.543 1.27344C486.68 1.27344 492.466 -4.51619 492.466 -11.658Z" fill="white" fill-opacity="0.3"/>
<path d="M317.257 -11.783C317.257 -18.9249 311.471 -24.7145 304.334 -24.7145C297.196 -24.7145 291.41 -18.9249 291.41 -11.783C291.41 -4.64119 297.196 1.14844 304.334 1.14844C311.471 1.14844 317.257 -4.64119 317.257 -11.783Z" fill="white" fill-opacity="0.3"/>
<path d="M142.358 -11.8166C142.342 -18.9584 136.543 -24.7353 129.406 -24.7195C122.268 -24.7038 116.495 -18.9014 116.511 -11.7596C116.526 -4.61773 122.325 1.15912 129.463 1.14338C136.6 1.12764 142.373 -4.67472 142.358 -11.8166Z" fill="white" fill-opacity="0.3"/>
<path d="M521.548 17.7638C521.548 10.622 515.762 4.83234 508.625 4.83234C501.487 4.83234 495.701 10.622 495.701 17.7638C495.701 24.9057 501.487 30.6953 508.625 30.6953C515.762 30.6953 521.548 24.9057 521.548 17.7638Z" fill="white" fill-opacity="0.3"/>
<path d="M346.345 17.6388C346.345 10.497 340.559 4.70733 333.422 4.70733C326.284 4.70733 320.498 10.497 320.498 17.6388C320.498 24.7807 326.284 30.5703 333.422 30.5703C340.559 30.5703 346.345 24.7807 346.345 17.6388Z" fill="white" fill-opacity="0.3"/>
<path d="M171.51 17.5467C171.494 10.4049 165.695 4.62802 158.558 4.64375C151.421 4.65949 145.647 10.4619 145.663 17.6037C145.679 24.7455 151.477 30.5224 158.615 30.5067C165.752 30.4909 171.526 24.6886 171.51 17.5467Z" fill="white" fill-opacity="0.3"/>
<path d="M58.5377 18.2284C58.5377 25.3702 64.3237 31.1598 71.4612 31.1598C78.5987 31.1598 84.3848 25.3702 84.3848 18.2284C84.3848 11.0865 78.5987 5.29688 71.4612 5.29688C64.3237 5.29688 58.5377 11.0865 58.5377 18.2284Z" fill="white" fill-opacity="0.3"/>
<path d="M408.32 18.3204C408.336 25.4622 414.135 31.2391 421.272 31.2234C428.409 31.2077 434.183 25.4053 434.167 18.2635C434.151 11.1216 428.353 5.34476 421.215 5.36047C414.078 5.37618 408.304 11.1785 408.32 18.3204Z" fill="white" fill-opacity="0.3"/>
<path d="M233.113 18.1915C233.129 25.3333 238.928 31.1102 246.065 31.0945C253.202 31.0788 258.976 25.2764 258.96 18.1346C258.944 10.9927 253.146 5.21586 246.008 5.23156C238.871 5.24727 233.097 11.0496 233.113 18.1915Z" fill="white" fill-opacity="0.3"/>
<path d="M492.47 105.838C492.47 98.6962 486.684 92.9066 479.547 92.9066C472.409 92.9066 466.623 98.6962 466.623 105.838C466.623 112.98 472.409 118.77 479.547 118.77C486.684 118.77 492.47 112.98 492.47 105.838Z" fill="white" fill-opacity="0.3"/>
<path d="M317.263 105.709C317.263 98.5673 311.477 92.7776 304.34 92.7776C297.202 92.7776 291.416 98.5673 291.416 105.709C291.416 112.851 297.202 118.641 304.34 118.641C311.477 118.641 317.263 112.851 317.263 105.709Z" fill="white" fill-opacity="0.3"/>
<path d="M29.4478 47.4549C29.4478 54.5968 35.2339 60.3864 42.3714 60.3864C49.5089 60.3864 55.2949 54.5968 55.2949 47.4549C55.2949 40.3131 49.5089 34.5234 42.3714 34.5234C35.2339 34.5234 29.4478 40.3131 29.4478 47.4549Z" fill="white" fill-opacity="0.3"/>
<path d="M379.295 47.6094C379.31 54.7513 385.109 60.5281 392.247 60.5124C399.384 60.4967 405.157 54.6944 405.142 47.5525C405.126 40.4107 399.327 34.6338 392.19 34.6495C385.052 34.6652 379.279 40.4676 379.295 47.6094Z" fill="white" fill-opacity="0.3"/>
<path d="M142.623 105.687C142.608 98.5455 136.809 92.7686 129.671 92.7844C122.534 92.8001 116.76 98.6025 116.776 105.744C116.792 112.886 122.591 118.663 129.728 118.647C136.866 118.632 142.639 112.829 142.623 105.687Z" fill="white" fill-opacity="0.3"/>
<path d="M0.365803 18.2284C0.365804 25.3702 6.15187 31.1598 13.2893 31.1598C20.4268 31.1598 26.2129 25.3702 26.2129 18.2284C26.2129 11.0865 20.4268 5.29688 13.2893 5.29688C6.15187 5.29688 0.365803 11.0865 0.365803 18.2284Z" fill="white" fill-opacity="0.3"/>
<path d="M350.148 18.4493C350.164 25.5911 355.963 31.368 363.1 31.3523C370.238 31.3366 376.011 25.5342 375.995 18.3924C375.98 11.2505 370.181 5.47367 363.043 5.48938C355.906 5.50508 350.132 11.3074 350.148 18.4493Z" fill="white" fill-opacity="0.3"/>
<path d="M174.943 18.3204C174.959 25.4622 180.758 31.2391 187.895 31.2234C195.033 31.2077 200.806 25.4053 200.79 18.2635C200.774 11.1216 194.976 5.34476 187.838 5.36047C180.701 5.37618 174.927 11.1785 174.943 18.3204Z" fill="white" fill-opacity="0.3"/>
<path d="M463.38 76.6115C463.38 69.4696 457.594 63.68 450.457 63.68C443.319 63.68 437.533 69.4696 437.533 76.6115C437.533 83.7533 443.319 89.543 450.457 89.543C457.594 89.543 463.38 83.7533 463.38 76.6115Z" fill="white" fill-opacity="0.3"/>
<path d="M58.5377 76.6815C58.5377 83.8234 64.3237 89.613 71.4612 89.613C78.5987 89.613 84.3848 83.8233 84.3848 76.6815C84.3848 69.5396 78.5987 63.75 71.4612 63.75C64.3237 63.75 58.5377 69.5396 58.5377 76.6815Z" fill="white" fill-opacity="0.3"/>
<path d="M408.447 76.7735C408.463 83.9153 414.261 89.6922 421.399 89.6765C428.536 89.6608 434.31 83.8585 434.294 76.7166C434.278 69.5748 428.48 63.7979 421.342 63.8136C414.205 63.8293 408.431 69.6316 408.447 76.7735Z" fill="white" fill-opacity="0.3"/>
<path d="M113.469 76.5194C113.453 69.3775 107.654 63.6007 100.517 63.6164C93.3795 63.6321 87.6062 69.4345 87.6219 76.5763C87.6376 83.7182 93.4364 89.4951 100.574 89.4793C107.711 89.4636 113.485 83.6612 113.469 76.5194Z" fill="white" fill-opacity="0.3"/>
<path d="M521.548 76.6115C521.548 69.4696 515.762 63.68 508.625 63.68C501.487 63.68 495.701 69.4696 495.701 76.6115C495.701 83.7533 501.487 89.543 508.625 89.543C515.762 89.543 521.548 83.7533 521.548 76.6115Z" fill="white" fill-opacity="0.3"/>
<path d="M346.345 76.4865C346.345 69.3446 340.559 63.555 333.422 63.555C326.284 63.555 320.498 69.3446 320.498 76.4865C320.498 83.6283 326.284 89.418 333.422 89.418C340.559 89.418 346.345 83.6283 346.345 76.4865Z" fill="white" fill-opacity="0.3"/>
<path d="M0.365803 76.6815C0.365804 83.8234 6.15187 89.613 13.2893 89.613C20.4268 89.613 26.2129 83.8233 26.2129 76.6815C26.2129 69.5396 20.4268 63.75 13.2893 63.75C6.15187 63.75 0.365803 69.5396 0.365803 76.6815Z" fill="white" fill-opacity="0.3"/>
<path d="M350.277 76.9024C350.293 84.0442 356.092 89.8211 363.229 89.8054C370.366 89.7897 376.14 83.9874 376.124 76.8455C376.108 69.7037 370.31 63.9268 363.172 63.9425C356.035 63.9582 350.261 69.7605 350.277 76.9024Z" fill="white" fill-opacity="0.3"/>
<path d="M175.072 76.7735C175.088 83.9153 180.886 89.6922 188.024 89.6765C195.161 89.6608 200.935 83.8585 200.919 76.7166C200.903 69.5748 195.105 63.7979 187.967 63.8136C180.83 63.8293 175.056 69.6316 175.072 76.7735Z" fill="white" fill-opacity="0.3"/>
<path d="M171.639 76.3905C171.623 69.2486 165.824 63.4718 158.687 63.4875C151.549 63.5032 145.776 69.3056 145.792 76.4475C145.808 83.5893 151.606 89.3661 158.744 89.3504C165.881 89.3347 171.655 83.5323 171.639 76.3905Z" fill="white" fill-opacity="0.3"/>
<path d="M495.703 37.3698L495.703 57.0013C495.703 58.7222 497.097 60.1172 498.817 60.1172L518.437 60.1172C520.156 60.1172 521.55 58.7222 521.55 57.0013L521.55 37.3698C521.55 35.6489 520.156 34.2539 518.437 34.2539L498.817 34.2539C497.097 34.2539 495.703 35.6489 495.703 37.3698Z" fill="white" fill-opacity="0.3"/>
<path d="M320.496 37.2487L320.496 56.8803C320.496 58.6011 321.89 59.9961 323.61 59.9961L343.23 59.9961C344.949 59.9961 346.343 58.6011 346.343 56.8803L346.343 37.2487C346.343 35.5279 344.949 34.1328 343.23 34.1328L323.61 34.1328C321.89 34.1328 320.496 35.5279 320.496 37.2487Z" fill="white" fill-opacity="0.3"/>
<path d="M26.2148 115.919L26.2148 96.2877C26.2148 94.5669 24.8207 93.1719 23.1009 93.1719L3.48141 93.1719C1.76164 93.1719 0.367491 94.5669 0.367491 96.2877L0.367492 115.919C0.367492 117.64 1.76164 119.035 3.48142 119.035L23.1009 119.035C24.8207 119.035 26.2148 117.64 26.2148 115.919Z" fill="white" fill-opacity="0.3"/>
<path d="M376.212 116.083L376.169 96.4518C376.165 94.7309 374.768 93.339 373.048 93.3428L353.429 93.386C351.709 93.3897 350.318 94.7878 350.322 96.5086L350.365 116.14C350.369 117.861 351.766 119.253 353.486 119.249L373.105 119.206C374.825 119.202 376.216 117.804 376.212 116.083Z" fill="white" fill-opacity="0.3"/>
<path d="M201.007 115.954L200.964 96.3229C200.96 94.602 199.563 93.2101 197.843 93.2139L178.224 93.2571C176.504 93.2608 175.113 94.6589 175.117 96.3797L175.16 116.011C175.164 117.732 176.561 119.124 178.28 119.12L197.9 119.077C199.62 119.073 201.011 117.675 201.007 115.954Z" fill="white" fill-opacity="0.3"/>
<path d="M145.704 37.2097L145.747 56.8412C145.751 58.562 147.148 59.954 148.868 59.9502L168.487 59.9069C170.207 59.9031 171.598 58.505 171.594 56.7842L171.551 37.1527C171.547 35.4319 170.15 34.0399 168.43 34.0437L148.811 34.087C147.091 34.0908 145.7 35.4889 145.704 37.2097Z" fill="white" fill-opacity="0.3"/>
<path d="M84.3809 -1.37759L84.3809 -21.0092C84.3809 -22.73 82.9867 -24.125 81.2669 -24.125L61.6474 -24.125C59.9277 -24.125 58.5335 -22.73 58.5335 -21.0092L58.5335 -1.37759C58.5335 0.34324 59.9277 1.73825 61.6474 1.73825L81.2669 1.73825C82.9867 1.73825 84.3809 0.343239 84.3809 -1.37759Z" fill="white" fill-opacity="0.3"/>
<path d="M434.12 -1.34249L434.077 -20.974C434.073 -22.6948 432.676 -24.0868 430.956 -24.083L411.337 -24.0398C409.617 -24.036 408.226 -22.638 408.23 -20.9171L408.273 -1.28561C408.277 0.435213 409.674 1.82715 411.394 1.82337L431.013 1.78019C432.733 1.77641 434.124 0.378335 434.12 -1.34249Z" fill="white" fill-opacity="0.3"/>
<path d="M258.915 -1.46749L258.872 -21.099C258.868 -22.8198 257.471 -24.2118 255.751 -24.208L236.132 -24.1648C234.412 -24.161 233.021 -22.763 233.025 -21.0421L233.068 -1.41061C233.072 0.310213 234.469 1.70215 236.189 1.69837L255.808 1.65519C257.528 1.65141 258.919 0.253335 258.915 -1.46749Z" fill="white" fill-opacity="0.3"/>
<path d="M437.529 7.9518L437.529 27.5834C437.529 29.3042 438.923 30.6992 440.643 30.6992L460.263 30.6992C461.983 30.6992 463.377 29.3042 463.377 27.5834L463.377 7.9518C463.377 6.23097 461.983 4.83596 460.263 4.83596L440.643 4.83596C438.923 4.83596 437.529 6.23097 437.529 7.9518Z" fill="white" fill-opacity="0.3"/>
<path d="M262.324 7.8229L262.324 27.4545C262.324 29.1753 263.718 30.5703 265.438 30.5703L285.058 30.5703C286.777 30.5703 288.172 29.1753 288.172 27.4545L288.172 7.8229C288.172 6.10207 286.777 4.70706 285.058 4.70706L265.438 4.70707C263.718 4.70707 262.324 6.10207 262.324 7.8229Z" fill="white" fill-opacity="0.3"/>
<path d="M87.4675 7.9167L87.5107 27.5482C87.5145 29.2691 88.9117 30.661 90.6315 30.6572L110.251 30.6139C111.971 30.6101 113.362 29.2121 113.358 27.4912L113.315 7.85971C113.311 6.13888 111.914 4.74695 110.194 4.75074L90.5745 4.794C88.8548 4.79779 87.4637 6.19587 87.4675 7.9167Z" fill="white" fill-opacity="0.3"/>
<path d="M437.529 -21.2748L437.529 -1.64318C437.529 0.0776476 438.923 1.47266 440.643 1.47266L460.263 1.47266C461.983 1.47266 463.377 0.0776464 463.377 -1.64318L463.377 -21.2748C463.377 -22.9956 461.983 -24.3906 460.263 -24.3906L440.643 -24.3906C438.923 -24.3906 437.529 -22.9956 437.529 -21.2748Z" fill="white" fill-opacity="0.3"/>
<path d="M262.324 -21.4037L262.324 -1.77209C262.324 -0.0512587 263.718 1.34375 265.438 1.34375L285.058 1.34375C286.777 1.34375 288.172 -0.0512598 288.172 -1.77209L288.172 -21.4037C288.172 -23.1245 286.777 -24.5195 285.058 -24.5195L265.438 -24.5195C263.718 -24.5195 262.324 -23.1245 262.324 -21.4037Z" fill="white" fill-opacity="0.3"/>
<path d="M87.403 -21.3099L87.4463 -1.67833C87.4501 0.0424947 88.8473 1.43443 90.567 1.43063L110.187 1.38738C111.906 1.38358 113.297 -0.0144954 113.294 -1.73532L113.25 -21.3668C113.247 -23.0877 111.849 -24.4796 110.13 -24.4758L90.5101 -24.4325C88.7903 -24.4288 87.3992 -23.0307 87.403 -21.3099Z" fill="white" fill-opacity="0.3"/>
<path fill-rule="evenodd" clip-rule="evenodd" d="M495.703 -11.6582L495.703 -1.8424C495.703 -0.121568 497.095 1.27344 498.817 1.27344L508.626 1.27344L518.435 1.27344C520.156 1.27344 521.549 -0.121569 521.549 -1.8424L521.549 -11.5709C521.549 -11.6003 521.549 -11.6293 521.549 -11.6582C521.549 -11.6871 521.549 -11.7165 521.549 -11.7454L521.549 -21.474C521.549 -23.1948 520.156 -24.5898 518.435 -24.5898L508.715 -24.5898C508.684 -24.5898 508.657 -24.5898 508.626 -24.5898C508.599 -24.5898 508.568 -24.5898 508.541 -24.5898L498.817 -24.5898C497.095 -24.5898 495.703 -23.1948 495.703 -21.474L495.703 -11.6582ZM495.703 -11.6582C495.703 -18.7712 501.442 -24.5431 508.541 -24.5898L508.715 -24.5898C515.783 -24.5431 521.504 -18.8184 521.549 -11.7454L521.549 -11.5709C521.504 -4.46904 515.735 1.27344 508.626 1.27344C501.491 1.27344 495.703 -4.51624 495.703 -11.6582Z" fill="white" fill-opacity="0.3"/>
<path fill-rule="evenodd" clip-rule="evenodd" d="M320.496 -11.7832L320.496 -1.9674C320.496 -0.246568 321.89 1.14844 323.61 1.14844L333.42 1.14844L343.23 1.14844C344.949 1.14844 346.343 -0.246569 346.343 -1.9674L346.343 -11.6964C346.344 -11.7253 346.344 -11.7543 346.344 -11.7832C346.344 -11.8121 346.344 -11.8415 346.343 -11.8704L346.343 -21.599C346.343 -23.3198 344.949 -24.7148 343.23 -24.7148L333.507 -24.7148C333.478 -24.7148 333.449 -24.7148 333.42 -24.7148C333.391 -24.7148 333.362 -24.7148 333.333 -24.7148L323.61 -24.7148C321.89 -24.7148 320.496 -23.3198 320.496 -21.599L320.496 -11.7832ZM320.496 -11.7832C320.496 -18.8962 326.235 -24.6681 333.333 -24.7148L333.507 -24.7148C340.576 -24.6681 346.297 -18.9434 346.343 -11.8704L346.343 -11.6964C346.297 -4.59405 340.529 1.14844 333.42 1.14844C326.282 1.14844 320.496 -4.64124 320.496 -11.7832Z" fill="white" fill-opacity="0.3"/>
<path fill-rule="evenodd" clip-rule="evenodd" d="M145.596 -11.8195L145.617 -2.00369C145.621 -0.28286 147.019 1.10902 148.738 1.10546L158.548 1.08367L168.358 1.06186C170.078 1.0583 171.469 -0.339832 171.465 -2.06067L171.443 -11.7896C171.443 -11.8186 171.444 -11.8475 171.443 -11.8764C171.443 -11.9058 171.443 -11.9348 171.443 -11.9637L171.422 -21.6922C171.418 -23.4131 170.021 -24.805 168.301 -24.801L158.578 -24.7796C158.55 -24.78 158.52 -24.78 158.491 -24.7796C158.462 -24.7796 158.433 -24.7796 158.404 -24.7791L148.681 -24.7578C146.962 -24.7542 145.571 -23.3561 145.574 -21.6353L145.596 -11.8195ZM145.596 -11.8195C145.58 -18.9325 151.307 -24.7168 158.404 -24.7791L158.578 -24.7796C165.647 -24.7489 171.381 -19.0366 171.443 -11.9637L171.443 -11.7896C171.412 -4.68731 165.657 1.06809 158.548 1.08367C151.411 1.09925 145.612 -4.67753 145.596 -11.8195Z" fill="white" fill-opacity="0.3"/>
<path fill-rule="evenodd" clip-rule="evenodd" d="M55.2952 -11.1972L55.2952 -21.013C55.2952 -22.7339 53.9006 -24.1289 52.1808 -24.1289L42.3711 -24.1289L32.5615 -24.1289C30.8417 -24.1289 29.4476 -22.7339 29.4476 -21.013L29.4476 -11.2841C29.4474 -11.2551 29.4473 -11.2262 29.4473 -11.1972C29.4473 -11.1683 29.4474 -11.1389 29.4476 -11.11L29.4476 -1.38146C29.4476 0.339369 30.8417 1.73437 32.5615 1.73437L42.2841 1.73437C42.3131 1.73437 42.3421 1.73437 42.3711 1.73437C42.4001 1.73437 42.4291 1.73437 42.4581 1.73437L52.1812 1.73437C53.9006 1.73437 55.2952 0.339368 55.2952 -1.38147L55.2952 -11.1972ZM55.2952 -11.1972C55.2952 -4.08423 49.5557 1.68764 42.4581 1.73437L42.2841 1.73437C35.2155 1.68764 29.4941 -4.03706 29.4476 -11.11L29.4476 -11.2841C29.4944 -18.3864 35.2625 -24.1289 42.3711 -24.1289C49.5086 -24.1289 55.2952 -18.3392 55.2952 -11.1972Z" fill="white" fill-opacity="0.3"/>
<path fill-rule="evenodd" clip-rule="evenodd" d="M405.013 -11.0948L404.992 -20.911C404.988 -22.6318 403.591 -24.0237 401.871 -24.0197L392.061 -23.9979L382.251 -23.9765C380.532 -23.9725 379.141 -22.5744 379.145 -20.854L379.166 -11.125C379.166 -11.0961 379.165 -11.0667 379.166 -11.0378C379.166 -11.0088 379.166 -10.9799 379.166 -10.951L379.188 -1.22244C379.191 0.49839 380.589 1.89027 382.308 1.88671L392.031 1.86536C392.06 1.86536 392.089 1.86536 392.118 1.86536C392.147 1.86536 392.176 1.86537 392.205 1.86492L401.928 1.84354C403.648 1.83953 405.039 0.441418 405.035 -1.27942L405.013 -11.0948ZM405.013 -11.0948C405.029 -3.98175 399.302 1.80261 392.205 1.86492L392.031 1.86536C384.962 1.8342 379.228 -3.87804 379.166 -10.951L379.166 -11.125C379.197 -18.2269 384.952 -23.9823 392.061 -23.9979C399.199 -24.0139 404.998 -18.2367 405.013 -11.0948Z" fill="white" fill-opacity="0.3"/>
<path fill-rule="evenodd" clip-rule="evenodd" d="M229.807 -11.2237L229.785 -21.0399C229.781 -22.7607 228.384 -24.1526 226.664 -24.1486L216.854 -24.1273L207.045 -24.1054C205.325 -24.1014 203.934 -22.7037 203.938 -20.9829L203.959 -11.2539C203.959 -11.225 203.959 -11.1961 203.959 -11.1667C203.959 -11.1378 203.959 -11.1088 203.959 -11.0799L203.981 -1.35135C203.985 0.369484 205.382 1.76137 207.102 1.75781L216.824 1.73645C216.853 1.73645 216.882 1.73645 216.911 1.73645C216.94 1.73645 216.969 1.73599 216.998 1.73599L226.721 1.71463C228.441 1.71063 229.832 0.312511 229.828 -1.40832L229.807 -11.2237ZM229.807 -11.2237C229.822 -4.11066 224.096 1.67323 216.998 1.73599L216.824 1.73645C209.756 1.70529 204.022 -4.00694 203.959 -11.0799L203.959 -11.2539C203.99 -18.3558 209.746 -24.1112 216.854 -24.1273C223.992 -24.1428 229.791 -18.3656 229.807 -11.2237Z" fill="white" fill-opacity="0.3"/>
<path fill-rule="evenodd" clip-rule="evenodd" d="M26.209 -11.3887L26.209 -21.2049C26.209 -22.9257 24.8148 -24.3207 23.095 -24.3207L13.2852 -24.3207L3.47554 -24.3207C1.75577 -24.3207 0.361614 -22.9257 0.361614 -21.2049L0.361614 -11.4759C0.361423 -11.447 0.361328 -11.4176 0.361328 -11.3887C0.361328 -11.3597 0.361423 -11.3308 0.361614 -11.3019L0.361615 -1.5733C0.361615 0.147529 1.75577 1.54253 3.47554 1.54253L13.1981 1.54253C13.2271 1.54298 13.2562 1.54297 13.2852 1.54297C13.3142 1.54297 13.3432 1.54298 13.3722 1.54253L23.095 1.54253C24.8148 1.54253 26.209 0.147527 26.209 -1.57331L26.209 -11.3887ZM26.209 -11.3887C26.209 -4.27564 20.4697 1.4958 13.3722 1.54253L13.1981 1.54253C6.12953 1.49624 0.408222 -4.2289 0.361614 -11.3019L0.361614 -11.4759C0.408411 -18.5778 6.17655 -24.3207 13.2852 -24.3207C20.4228 -24.3207 26.209 -18.5306 26.209 -11.3887Z" fill="white" fill-opacity="0.3"/>
<path fill-rule="evenodd" clip-rule="evenodd" d="M375.925 -11.2276L375.904 -21.0434C375.9 -22.7642 374.503 -24.1561 372.783 -24.1525L362.973 -24.1307L353.163 -24.1093C351.444 -24.1053 350.053 -22.7072 350.057 -20.9864L350.078 -11.2578C350.078 -11.2289 350.078 -11.1995 350.078 -11.1706C350.078 -11.1416 350.078 -11.1127 350.078 -11.0833L350.1 -1.35482C350.104 0.36601 351.501 1.7579 353.221 1.7539L362.943 1.73254C362.972 1.73254 363.001 1.73254 363.03 1.73254C363.059 1.73254 363.088 1.73255 363.117 1.73211L372.84 1.71073C374.56 1.70672 375.951 0.308593 375.947 -1.4118L375.925 -11.2276ZM375.925 -11.2276C375.941 -4.11456 370.215 1.66979 363.117 1.73211L362.943 1.73254C355.874 1.70138 350.141 -4.01083 350.078 -11.0833L350.078 -11.2578C350.109 -18.3597 355.865 -24.1151 362.973 -24.1307C370.111 -24.1467 375.91 -18.3695 375.925 -11.2276Z" fill="white" fill-opacity="0.3"/>
<path fill-rule="evenodd" clip-rule="evenodd" d="M200.72 -11.3565L200.698 -21.1723C200.695 -22.8931 199.298 -24.2854 197.578 -24.2814L187.768 -24.2596L177.958 -24.2383C176.239 -24.2342 174.848 -22.8361 174.852 -21.1153L174.873 -11.3867C174.872 -11.3578 174.872 -11.3284 174.872 -11.2995C174.873 -11.2706 174.873 -11.2416 174.873 -11.2127L174.895 -1.48416C174.898 0.236669 176.296 1.629 178.015 1.62499L187.738 1.60364C187.767 1.60364 187.796 1.60364 187.825 1.60364C187.854 1.60364 187.883 1.60365 187.912 1.6032L197.635 1.58182C199.355 1.57781 200.746 0.179697 200.742 -1.54114L200.72 -11.3565ZM200.72 -11.3565C200.736 -4.24347 195.009 1.54089 187.912 1.6032L187.738 1.60364C180.669 1.57248 174.935 -4.13976 174.873 -11.2127L174.873 -11.3867C174.904 -18.4886 180.659 -24.244 187.768 -24.2596C194.906 -24.2756 200.705 -18.4984 200.72 -11.3565Z" fill="white" fill-opacity="0.3"/>
<path fill-rule="evenodd" clip-rule="evenodd" d="M466.613 17.7671L466.613 27.5834C466.613 29.3042 468.01 30.6992 469.727 30.6992L479.541 30.6992L489.349 30.6992C491.066 30.6992 492.463 29.3042 492.463 27.5834L492.463 17.8544C492.463 17.8255 492.463 17.7965 492.463 17.7671C492.463 17.7382 492.463 17.7093 492.463 17.6803L492.463 7.9518C492.463 6.23097 491.066 4.83596 489.349 4.83596L479.625 4.83596C479.598 4.83552 479.567 4.83553 479.541 4.83553C479.509 4.83553 479.483 4.83552 479.452 4.83596L469.727 4.83596C468.01 4.83596 466.613 6.23097 466.613 7.9518L466.613 17.7671ZM466.613 17.7671C466.613 10.6546 472.356 4.8827 479.452 4.83596L479.625 4.83596C486.694 4.8827 492.414 10.6074 492.463 17.6803L492.463 17.8544C492.414 24.9563 486.649 30.6992 479.541 30.6992C472.401 30.6992 466.613 24.9095 466.613 17.7671Z" fill="white" fill-opacity="0.3"/>
<path fill-rule="evenodd" clip-rule="evenodd" d="M291.41 17.6382L291.41 27.4545C291.41 29.1753 292.804 30.5703 294.524 30.5703L304.334 30.5703L314.144 30.5703C315.863 30.5703 317.258 29.1753 317.258 27.4545L317.258 17.7255C317.258 17.6966 317.258 17.6676 317.258 17.6382C317.258 17.6093 317.258 17.5804 317.258 17.5514L317.258 7.82291C317.258 6.10207 315.863 4.70707 314.144 4.70707L304.421 4.70707C304.392 4.70662 304.363 4.70663 304.334 4.70663C304.305 4.70663 304.276 4.70662 304.247 4.70707L294.524 4.70707C292.804 4.70707 291.41 6.10208 291.41 7.82291L291.41 17.6382ZM291.41 17.6382C291.41 10.5252 297.149 4.75381 304.247 4.70707L304.421 4.70707C311.489 4.75336 317.211 10.4785 317.258 17.5514L317.258 17.7255C317.21 24.8274 311.442 30.5703 304.334 30.5703C297.196 30.5703 291.41 24.7802 291.41 17.6382Z" fill="white" fill-opacity="0.3"/>
<path fill-rule="evenodd" clip-rule="evenodd" d="M116.576 17.6688L116.598 27.4846C116.602 29.2054 117.999 30.5973 119.719 30.5937L129.529 30.5719L139.338 30.5506C141.058 30.5466 142.449 29.1484 142.445 27.4276L142.424 17.6986C142.424 17.6697 142.424 17.6408 142.424 17.6118C142.424 17.5829 142.424 17.5535 142.423 17.5246L142.402 7.79605C142.398 6.07522 141.001 4.68333 139.281 4.68733L129.559 4.70869C129.53 4.70869 129.501 4.70824 129.472 4.70869C129.443 4.70869 129.414 4.7087 129.385 4.70915L119.662 4.7305C117.942 4.73406 116.551 6.13219 116.555 7.85302L116.576 17.6688ZM116.576 17.6688C116.561 10.5558 122.287 4.77147 129.385 4.70915L129.559 4.70869C136.627 4.73984 142.361 10.4521 142.423 17.5246L142.424 17.6986C142.393 24.801 136.637 30.5563 129.529 30.5719C122.391 30.5875 116.592 24.8107 116.576 17.6688Z" fill="white" fill-opacity="0.3"/>
<path fill-rule="evenodd" clip-rule="evenodd" d="M463.381 47.1856C463.381 40.0436 457.598 34.2539 450.458 34.2539C443.321 34.2539 437.535 40.0436 437.535 47.1856C437.535 54.3275 443.321 60.1172 450.458 60.1172C457.598 60.1172 463.381 54.3275 463.381 47.1856ZM469.729 34.2539C468.012 34.2539 466.615 35.6489 466.615 37.3698L466.615 57.0013C466.615 58.7222 468.012 60.1172 469.729 60.1172L489.351 60.1172C491.068 60.1172 492.465 58.7222 492.465 57.0013L492.465 37.3698C492.465 35.6489 491.068 34.2539 489.351 34.2539L469.729 34.2539Z" fill="white" fill-opacity="0.3"/>
<path d="M291.41 37.2487L291.41 56.8803C291.41 58.6011 292.804 59.9961 294.524 59.9961L314.144 59.9961C315.863 59.9961 317.258 58.6011 317.258 56.8803L317.258 37.2487C317.258 35.5279 315.863 34.1328 314.144 34.1328L294.524 34.1328C292.804 34.1328 291.41 35.5279 291.41 37.2487Z" fill="white" fill-opacity="0.3"/>
<path fill-rule="evenodd" clip-rule="evenodd" d="M58.5342 106.104C58.5342 113.245 64.3203 119.035 71.4578 119.035C78.5954 119.035 84.3815 113.245 84.3815 106.104C84.3815 98.9611 78.5954 93.1715 71.4578 93.1715C64.3203 93.1715 58.5342 98.9611 58.5342 106.104ZM52.1866 119.035C53.9064 119.035 55.3006 117.64 55.3006 115.919L55.3006 96.2873C55.3006 94.5665 53.9064 93.1715 52.1866 93.1715L32.567 93.1715C30.8473 93.1715 29.4531 94.5665 29.4531 96.2873L29.4531 115.919C29.4531 117.64 30.8473 119.035 32.5671 119.035L52.1866 119.035Z" fill="white" fill-opacity="0.3"/>
<path fill-rule="evenodd" clip-rule="evenodd" d="M408.511 106.199C408.527 113.341 414.326 119.118 421.463 119.102C428.601 119.086 434.374 113.284 434.358 106.142C434.343 99 428.544 93.2228 421.406 93.2388C414.269 93.2544 408.495 99.057 408.511 106.199ZM402.192 119.144C403.912 119.14 405.303 117.742 405.299 116.021L405.256 96.3898C405.252 94.669 403.855 93.2771 402.135 93.2811L382.515 93.3243C380.796 93.3283 379.405 94.7264 379.408 96.4472L379.451 116.078C379.455 117.799 380.853 119.191 382.572 119.187L402.192 119.144Z" fill="white" fill-opacity="0.3"/>
<path fill-rule="evenodd" clip-rule="evenodd" d="M113.408 47.0945C113.392 39.9526 107.594 34.1754 100.456 34.1914C93.3182 34.207 87.545 40.0096 87.5606 47.1515C87.5766 54.2935 93.3752 60.0702 100.513 60.0547C107.651 60.0391 113.424 54.2365 113.408 47.0945ZM119.727 34.1491C118.008 34.1527 116.617 35.5508 116.62 37.2716L116.663 56.9032C116.667 58.624 118.065 60.0159 119.784 60.0124L139.404 59.9692C141.124 59.9652 142.515 58.5671 142.511 56.8462L142.468 37.2147C142.464 35.4938 141.066 34.1019 139.347 34.106L119.727 34.1491Z" fill="white" fill-opacity="0.3"/>
<path fill-rule="evenodd" clip-rule="evenodd" d="M55.2987 18.2246L55.2987 8.40841C55.2987 6.68758 53.9046 5.29257 52.1848 5.29257L42.375 5.29257L32.5654 5.29257C30.8456 5.29257 29.4515 6.68758 29.4515 8.40841L29.4515 18.1374C29.4513 18.1663 29.4512 18.1953 29.4512 18.2246C29.4512 18.2536 29.4513 18.2825 29.4515 18.3114L29.4515 28.04C29.4515 29.7608 30.8456 31.1558 32.5654 31.1558L42.288 31.1558C42.317 31.1562 42.346 31.1562 42.375 31.1562C42.404 31.1562 42.433 31.1562 42.462 31.1558L52.1848 31.1558C53.9046 31.1558 55.2987 29.7608 55.2987 28.04L55.2987 18.2246ZM55.2987 18.2246C55.2987 25.3376 49.5597 31.1091 42.462 31.1558L42.288 31.1558C35.2194 31.1095 29.4981 25.3844 29.4515 18.3114L29.4515 18.1374C29.4983 11.0355 35.2664 5.29257 42.375 5.29257C49.5126 5.29257 55.2987 11.0827 55.2987 18.2246Z" fill="white" fill-opacity="0.3"/>
<path fill-rule="evenodd" clip-rule="evenodd" d="M405.082 18.3267L405.06 8.51088C405.056 6.79005 403.659 5.39817 401.939 5.40217L392.129 5.42353L382.32 5.44535C380.6 5.44891 379.209 6.84702 379.213 8.56785L379.234 18.2968C379.234 18.3258 379.234 18.3547 379.234 18.3836C379.234 18.413 379.234 18.442 379.235 18.4709L379.256 28.1994C379.26 29.9203 380.657 31.3121 382.377 31.3086L392.1 31.2868C392.129 31.2872 392.157 31.2872 392.186 31.2872C392.215 31.2868 392.245 31.2868 392.274 31.2868L401.996 31.265C403.716 31.2614 405.107 29.8633 405.103 28.1424L405.082 18.3267ZM405.082 18.3267C405.098 25.4397 399.371 31.224 392.274 31.2868L392.1 31.2868C385.031 31.2561 379.297 25.5438 379.235 18.4709L379.234 18.2968C379.265 11.1945 385.021 5.43911 392.129 5.42353C399.267 5.40795 405.066 11.1847 405.082 18.3267Z" fill="white" fill-opacity="0.3"/>
<path d="M229.717 105.926C229.701 113.068 223.903 118.845 216.765 118.829C209.628 118.813 203.854 113.011 203.87 105.869C203.886 98.7271 209.684 92.9502 216.822 92.9659C223.959 92.9816 229.733 98.784 229.717 105.926Z" fill="white" fill-opacity="0.3"/>
<path d="M258.932 47.1446C258.916 54.2864 253.117 60.0633 245.98 60.0476C238.842 60.0319 233.069 54.2295 233.085 47.0877C233.101 39.9459 238.899 34.169 246.037 34.1847C253.174 34.2004 258.948 40.0027 258.932 47.1446Z" fill="white" fill-opacity="0.3"/>
<path d="M287.889 106.059C287.873 113.2 282.074 118.977 274.937 118.962C267.8 118.946 262.026 113.144 262.042 106.002C262.058 98.8599 267.856 93.083 274.994 93.0988C282.131 93.1145 287.905 98.9168 287.889 106.059Z" fill="white" fill-opacity="0.3"/>
<path d="M203.917 86.263L203.96 66.6315C203.964 64.9106 205.361 63.5187 207.081 63.5225L226.7 63.5657C228.42 63.5694 229.811 64.9675 229.807 66.6883L229.764 86.3199C229.76 88.0407 228.363 89.4326 226.643 89.4288L207.024 89.3857C205.304 89.3819 203.913 87.9838 203.917 86.263Z" fill="white" fill-opacity="0.3"/>
<path fill-rule="evenodd" clip-rule="evenodd" d="M233.024 76.5107L233.045 66.6945C233.049 64.9737 234.446 63.5818 236.166 63.5858L245.976 63.6076L255.786 63.6289C257.506 63.6329 258.897 65.0311 258.893 66.7515L258.871 76.4804C258.871 76.5094 258.872 76.5388 258.871 76.5677C258.871 76.5966 258.871 76.6255 258.871 76.6545L258.849 86.383C258.846 88.1039 257.449 89.4957 255.729 89.4922L246.006 89.4708C245.977 89.4708 245.948 89.4708 245.919 89.4708C245.89 89.4708 245.861 89.4708 245.832 89.4704L236.109 89.449C234.39 89.445 232.999 88.0469 233.002 86.3261L233.024 76.5107ZM233.024 76.5107C233.008 83.6237 238.735 89.4081 245.832 89.4704L246.006 89.4708C253.075 89.4397 258.809 83.7274 258.871 76.6545L258.871 76.4804C258.84 69.3786 253.085 63.6232 245.976 63.6076C238.838 63.5916 233.039 69.3688 233.024 76.5107Z" fill="white" fill-opacity="0.3"/>
<path fill-rule="evenodd" clip-rule="evenodd" d="M262.112 76.3779L262.133 66.5621C262.137 64.8413 263.534 63.4494 265.254 63.453L275.064 63.4748L284.874 63.4961C286.593 63.5001 287.984 64.8983 287.98 66.6191L287.959 76.3476C287.959 76.3766 287.959 76.406 287.959 76.4349C287.959 76.4638 287.959 76.4928 287.959 76.5221L287.937 86.2506C287.933 87.9715 286.536 89.3634 284.816 89.3594L275.094 89.338C275.065 89.338 275.036 89.338 275.007 89.338C274.978 89.338 274.949 89.338 274.92 89.3376L265.197 89.3162C263.477 89.3122 262.086 87.9141 262.09 86.1937L262.112 76.3779ZM262.112 76.3779C262.096 83.4909 267.822 89.2753 274.92 89.3376L275.094 89.338C282.163 89.3069 287.896 83.5946 287.959 76.5221L287.959 76.3476C287.928 69.2457 282.173 63.4904 275.064 63.4748C267.926 63.4587 262.127 69.2359 262.112 76.3779Z" fill="white" fill-opacity="0.3"/>
<path fill-rule="evenodd" clip-rule="evenodd" d="M204.004 47.0224L204.026 37.2062C204.03 35.4854 205.427 34.0935 207.147 34.0975L216.957 34.1188L226.766 34.1407C228.486 34.1447 229.877 35.5423 229.873 37.2632L229.852 46.9922C229.852 47.0211 229.852 47.05 229.852 47.0794C229.852 47.1083 229.852 47.1373 229.851 47.1662L229.83 56.8947C229.826 58.6156 228.429 60.0075 226.709 60.0039L216.986 59.9825C216.957 59.9825 216.928 59.9825 216.9 59.9825C216.871 59.9825 216.841 59.9821 216.812 59.9821L207.09 59.9607C205.37 59.9567 203.979 58.5586 203.983 56.8378L204.004 47.0224ZM204.004 47.0224C203.988 54.1354 209.715 59.9198 216.812 59.9821L216.986 59.9825C224.055 59.9514 229.789 54.2392 229.851 47.1662L229.852 46.9922C229.821 39.8903 224.065 34.1349 216.957 34.1188C209.819 34.1033 204.02 39.8805 204.004 47.0224Z" fill="white" fill-opacity="0.3"/>
<path fill-rule="evenodd" clip-rule="evenodd" d="M262.172 47.1552L262.194 37.339C262.197 35.6182 263.594 34.2263 265.314 34.2303L275.124 34.2521L284.934 34.2735C286.654 34.2775 288.045 35.6756 288.041 37.3964L288.02 47.125C288.02 47.1539 288.02 47.1833 288.02 47.2122C288.02 47.2411 288.019 47.2701 288.019 47.299L287.998 57.0276C287.994 58.7484 286.597 60.1407 284.877 60.1367L275.154 60.1154C275.125 60.1154 275.096 60.1154 275.068 60.1154C275.038 60.1154 275.009 60.1153 274.98 60.1149L265.257 60.0935C263.538 60.0895 262.147 58.6914 262.151 56.9706L262.172 47.1552ZM262.172 47.1552C262.156 54.2682 267.883 60.0526 274.98 60.1149L275.154 60.1154C282.223 60.0842 287.957 54.372 288.019 47.299L288.02 47.125C287.989 40.0231 282.233 34.2677 275.124 34.2521C267.986 34.2361 262.188 40.0133 262.172 47.1552Z" fill="white" fill-opacity="0.3"/>
<path fill-rule="evenodd" clip-rule="evenodd" d="M232.956 105.932L232.977 96.1164C232.981 94.3955 234.378 93.0036 236.098 93.0076L245.908 93.029L255.717 93.0508C257.437 93.0544 258.828 94.4525 258.824 96.1733L258.803 105.902C258.803 105.931 258.803 105.96 258.803 105.989C258.803 106.018 258.803 106.047 258.802 106.076L258.781 115.805C258.777 117.526 257.38 118.918 255.66 118.914L245.937 118.892C245.909 118.893 245.88 118.893 245.851 118.893C245.822 118.892 245.792 118.892 245.764 118.892L236.041 118.87C234.321 118.867 232.93 117.469 232.934 115.748L232.956 105.932ZM232.956 105.932C232.939 113.045 238.666 118.829 245.764 118.892L245.937 118.892C253.007 118.862 258.74 113.149 258.802 106.076L258.803 105.902C258.772 98.8 253.016 93.0446 245.908 93.029C238.77 93.0134 232.971 98.7902 232.956 105.932Z" fill="white" fill-opacity="0.3"/>
<path fill-rule="evenodd" clip-rule="evenodd" d="M229.875 18.1982L229.853 8.38242C229.849 6.66159 228.452 5.26971 226.732 5.27327L216.922 5.29508L207.113 5.31687C205.393 5.32043 204.002 6.71856 204.006 8.43939L204.027 18.1684C204.027 18.1973 204.027 18.2262 204.027 18.2552C204.027 18.2841 204.027 18.3135 204.028 18.3424L204.049 28.071C204.053 29.7918 205.45 31.1837 207.17 31.1797L216.892 31.1583C216.921 31.1588 216.95 31.1588 216.979 31.1583C217.008 31.1583 217.037 31.1583 217.066 31.1579L226.789 31.1365C228.509 31.1329 229.9 29.7348 229.896 28.014L229.875 18.1982ZM229.875 18.1982C229.89 25.3112 224.164 31.0955 217.066 31.1579L216.892 31.1583C209.824 31.1276 204.089 25.4154 204.028 18.3424L204.027 18.1684C204.058 11.0661 209.814 5.31066 216.922 5.29508C224.06 5.2795 229.859 11.0563 229.875 18.1982Z" fill="white" fill-opacity="0.3"/>
<path fill-rule="evenodd" clip-rule="evenodd" d="M437.533 105.838L437.533 115.654C437.533 117.375 438.927 118.77 440.647 118.77L450.459 118.77L460.268 118.77C461.985 118.77 463.381 117.375 463.381 115.654L463.381 105.925C463.381 105.896 463.381 105.867 463.381 105.838C463.381 105.809 463.381 105.78 463.381 105.751L463.381 96.0221C463.381 94.3013 461.985 92.9063 460.268 92.9063L450.543 92.9063C450.516 92.9063 450.485 92.9063 450.459 92.9063C450.428 92.9063 450.401 92.9063 450.37 92.9063L440.647 92.9063C438.927 92.9063 437.533 94.3013 437.533 96.0221L437.533 105.838ZM437.533 105.838C437.533 98.7249 443.273 92.953 450.37 92.9063L450.543 92.9063C457.612 92.953 463.332 98.6777 463.381 105.751L463.381 105.925C463.332 113.027 457.567 118.77 450.459 118.77C443.319 118.77 437.533 112.98 437.533 105.838Z" fill="white" fill-opacity="0.3"/>
<path fill-rule="evenodd" clip-rule="evenodd" d="M84.3849 47.459L84.3849 37.6432C84.3849 35.9224 82.9908 34.5274 81.271 34.5274L71.4612 34.5274L61.6515 34.5274C59.9317 34.5274 58.5375 35.9224 58.5375 37.6432L58.5376 47.3718C58.5376 47.4007 58.5371 47.4301 58.5371 47.459C58.5371 47.4879 58.5376 47.5169 58.5376 47.5458L58.5376 57.2748C58.5376 58.9956 59.9317 60.3906 61.6515 60.3906L71.374 60.3906C71.403 60.3906 71.4323 60.3906 71.4612 60.3906C71.4901 60.3906 71.5191 60.3906 71.548 60.3906L81.271 60.3906C82.9908 60.3906 84.3849 58.9956 84.3849 57.2748L84.3849 47.459ZM84.3849 47.459C84.3849 54.572 78.6459 60.3434 71.548 60.3906L71.374 60.3906C64.3054 60.3439 58.5843 54.6188 58.5376 47.5458L58.5376 47.3718C58.5843 40.2699 64.3526 34.5274 71.4612 34.5274C78.5988 34.5274 84.3849 40.3171 84.3849 47.459Z" fill="white" fill-opacity="0.3"/>
<path fill-rule="evenodd" clip-rule="evenodd" d="M434.232 47.4912L434.211 37.6754C434.207 35.9546 432.81 34.5627 431.09 34.5662L421.28 34.588L411.471 34.6094C409.751 34.6134 408.36 36.0115 408.363 37.7324L408.385 47.4609C408.385 47.4903 408.385 47.5192 408.385 47.5481C408.385 47.5771 408.385 47.606 408.385 47.6354L408.406 57.3639C408.41 59.0848 409.808 60.4767 411.527 60.4726L421.25 60.4513C421.279 60.4513 421.308 60.4513 421.337 60.4513C421.366 60.4513 421.395 60.4513 421.424 60.4508L431.147 60.4295C432.867 60.4255 434.258 59.0278 434.254 57.307L434.232 47.4912ZM434.232 47.4912C434.248 54.6042 428.521 60.3885 421.424 60.4508L421.25 60.4513C414.181 60.4201 408.447 54.7079 408.385 47.6354L408.385 47.4609C408.416 40.359 414.172 34.6036 421.28 34.588C428.418 34.572 434.216 40.3492 434.232 47.4912Z" fill="white" fill-opacity="0.3"/>
<path fill-rule="evenodd" clip-rule="evenodd" d="M87.6854 105.802L87.7072 115.617C87.7112 117.338 89.108 118.73 90.8278 118.727L100.638 118.705L110.447 118.683C112.167 118.679 113.558 117.281 113.555 115.56L113.533 105.831C113.533 105.803 113.533 105.774 113.533 105.745C113.533 105.715 113.533 105.686 113.533 105.657L113.511 95.9289C113.507 94.208 112.11 92.8161 110.39 92.8201L100.668 92.8415C100.639 92.8411 100.61 92.8411 100.581 92.8415C100.552 92.8415 100.523 92.8415 100.494 92.8419L90.7709 92.8633C89.0511 92.8669 87.6601 94.265 87.6641 95.9858L87.6854 105.802ZM87.6854 105.802C87.6698 98.6886 93.3964 92.9043 100.494 92.8419L100.668 92.8415C107.736 92.8722 113.47 98.5844 113.533 105.657L113.533 105.831C113.502 112.934 107.747 118.689 100.638 118.705C93.5005 118.72 87.7014 112.944 87.6854 105.802Z" fill="white" fill-opacity="0.3"/>
<path fill-rule="evenodd" clip-rule="evenodd" d="M495.703 105.838L495.703 115.654C495.703 117.375 497.1 118.77 498.817 118.77L508.626 118.77L518.439 118.77C520.156 118.77 521.553 117.375 521.553 115.654L521.553 105.925C521.553 105.896 521.553 105.867 521.553 105.838C521.553 105.809 521.553 105.78 521.553 105.751L521.553 96.0221C521.553 94.3013 520.156 92.9063 518.439 92.9063L508.715 92.9063C508.684 92.9063 508.657 92.9058 508.626 92.9058C508.599 92.9058 508.568 92.9063 508.541 92.9063L498.817 92.9063C497.1 92.9063 495.703 94.3013 495.703 96.0221L495.703 105.838ZM495.703 105.838C495.703 98.7249 501.442 92.953 508.541 92.9063L508.715 92.9063C515.783 92.953 521.504 98.6777 521.553 105.751L521.553 105.925C521.504 113.027 515.735 118.77 508.626 118.77C501.491 118.77 495.703 112.98 495.703 105.838Z" fill="white" fill-opacity="0.3"/>
<path fill-rule="evenodd" clip-rule="evenodd" d="M320.498 105.709L320.498 115.525C320.498 117.246 321.892 118.641 323.612 118.641L333.422 118.641L343.231 118.641C344.951 118.641 346.345 117.246 346.345 115.525L346.345 105.796C346.346 105.767 346.346 105.738 346.346 105.709C346.346 105.68 346.346 105.651 346.345 105.622L346.345 95.8932C346.345 94.1724 344.951 92.7774 343.231 92.7774L333.509 92.7774C333.48 92.7774 333.451 92.7769 333.422 92.7769C333.393 92.7769 333.364 92.7774 333.335 92.7774L323.612 92.7774C321.892 92.7774 320.498 94.1724 320.498 95.8932L320.498 105.709ZM320.498 105.709C320.498 98.596 326.237 92.8241 333.335 92.7774L333.509 92.7774C340.578 92.8241 346.299 98.5488 346.345 105.622L346.345 105.796C346.299 112.898 340.531 118.641 333.422 118.641C326.284 118.641 320.498 112.851 320.498 105.709Z" fill="white" fill-opacity="0.3"/>
<path fill-rule="evenodd" clip-rule="evenodd" d="M26.2129 47.459L26.2129 37.6432C26.2129 35.9224 24.8187 34.5274 23.0989 34.5274L13.2891 34.5274L3.47944 34.5274C1.75967 34.5274 0.36552 35.9224 0.36552 37.6432L0.365521 47.3718C0.365329 47.4007 0.365234 47.4301 0.365234 47.459C0.365234 47.4879 0.365329 47.5169 0.365521 47.5458L0.365521 57.2748C0.365521 58.9956 1.75967 60.3906 3.47944 60.3906L13.2021 60.3906C13.231 60.3906 13.26 60.3906 13.2891 60.3906C13.3181 60.3906 13.3471 60.3906 13.3761 60.3906L23.0989 60.3906C24.8187 60.3906 26.2129 58.9956 26.2129 57.2748L26.2129 47.459ZM26.2129 47.459C26.2129 54.572 20.4736 60.3434 13.3761 60.3906L13.2021 60.3906C6.13344 60.3439 0.412128 54.6188 0.365521 47.5458L0.365521 47.3718C0.412317 40.2699 6.18046 34.5274 13.2891 34.5274C20.4267 34.5274 26.2129 40.3171 26.2129 47.459Z" fill="white" fill-opacity="0.3"/>
<path fill-rule="evenodd" clip-rule="evenodd" d="M376.06 47.6162L376.039 37.8004C376.035 36.0796 374.638 34.6877 372.918 34.6912L363.108 34.713L353.298 34.7344C351.578 34.7384 350.187 36.1365 350.191 37.8574L350.213 47.5863C350.213 47.6153 350.213 47.6442 350.213 47.6731C350.213 47.7021 350.213 47.7314 350.213 47.7604L350.235 57.4889C350.238 59.2098 351.635 60.6017 353.355 60.5976L363.078 60.5763C363.107 60.5763 363.136 60.5767 363.165 60.5763C363.194 60.5763 363.223 60.5763 363.252 60.5758L372.975 60.5545C374.694 60.5509 376.085 59.1528 376.082 57.432L376.06 47.6162ZM376.06 47.6162C376.076 54.7292 370.349 60.5135 363.252 60.5758L363.078 60.5763C356.009 60.5451 350.275 54.8329 350.213 47.7604L350.213 47.5863C350.244 40.484 355.999 34.7286 363.108 34.713C370.246 34.697 376.045 40.4742 376.06 47.6162Z" fill="white" fill-opacity="0.3"/>
<path fill-rule="evenodd" clip-rule="evenodd" d="M200.854 47.4912L200.832 37.6754C200.828 35.9546 199.431 34.5627 197.711 34.5662L187.901 34.588L178.092 34.6094C176.372 34.6134 174.981 36.0115 174.984 37.7324L175.006 47.4609C175.006 47.4903 175.006 47.5192 175.006 47.5481C175.006 47.5771 175.006 47.606 175.006 47.6354L175.028 57.3639C175.032 59.0848 176.429 60.4767 178.149 60.4726L187.871 60.4513C187.9 60.4513 187.929 60.4513 187.958 60.4513C187.987 60.4513 188.016 60.4513 188.045 60.4508L197.768 60.4295C199.488 60.4255 200.879 59.0278 200.875 57.307L200.854 47.4912ZM200.854 47.4912C200.869 54.6042 195.143 60.3885 188.045 60.4508L187.871 60.4513C180.803 60.4201 175.068 54.7079 175.006 47.6354L175.006 47.4609C175.037 40.359 180.793 34.6036 187.901 34.588C195.039 34.572 200.838 40.3492 200.854 47.4912Z" fill="white" fill-opacity="0.3"/>
<path fill-rule="evenodd" clip-rule="evenodd" d="M145.856 105.673L145.877 115.489C145.881 117.21 147.278 118.602 148.998 118.598L158.808 118.576L168.618 118.554C170.337 118.551 171.728 117.153 171.724 115.432L171.703 105.703C171.703 105.674 171.703 105.645 171.703 105.616C171.703 105.587 171.703 105.558 171.703 105.529L171.681 95.8004C171.678 94.0796 170.281 92.6877 168.561 92.6912L158.838 92.7131C158.809 92.7126 158.78 92.7126 158.751 92.7126C158.722 92.7126 158.693 92.7131 158.664 92.7131L148.941 92.7349C147.221 92.7384 145.83 94.1365 145.834 95.8574L145.856 105.673ZM145.856 105.673C145.84 98.5601 151.567 92.7758 158.664 92.7131L158.838 92.7131C165.907 92.7438 171.64 98.456 171.703 105.529L171.703 105.703C171.672 112.805 165.917 118.561 158.808 118.576C151.67 118.592 145.871 112.815 145.856 105.673Z" fill="white" fill-opacity="0.3"/>
<path fill-rule="evenodd" clip-rule="evenodd" d="M466.619 76.6114L466.619 86.4271C466.619 88.148 468.012 89.543 469.733 89.543L479.542 89.543L489.351 89.543C491.072 89.543 492.465 88.148 492.465 86.4271L492.465 76.6981C492.465 76.6692 492.465 76.6403 492.465 76.6114C492.465 76.582 492.465 76.553 492.465 76.5241L492.465 66.7956C492.465 65.0747 491.072 63.6797 489.351 63.6797L479.631 63.6797C479.6 63.6797 479.573 63.6793 479.542 63.6793C479.515 63.6793 479.484 63.6797 479.453 63.6797L469.733 63.6797C468.012 63.6797 466.619 65.0747 466.619 66.7956L466.619 76.6114ZM466.619 76.6114C466.619 69.4983 472.358 63.7265 479.453 63.6797L479.631 63.6797C486.7 63.7265 492.42 69.4512 492.465 76.5241L492.465 76.6981C492.42 83.8 486.651 89.543 479.542 89.543C472.407 89.543 466.619 83.7533 466.619 76.6114Z" fill="white" fill-opacity="0.3"/>
<path fill-rule="evenodd" clip-rule="evenodd" d="M291.412 76.4863L291.412 86.3021C291.412 88.023 292.806 89.418 294.526 89.418L304.336 89.418L314.146 89.418C315.866 89.418 317.26 88.023 317.26 86.3021L317.26 76.5731C317.26 76.5442 317.26 76.5153 317.26 76.4863C317.26 76.457 317.26 76.428 317.26 76.3991L317.26 66.6706C317.26 64.9497 315.865 63.5547 314.146 63.5547L304.423 63.5547C304.394 63.5543 304.365 63.5543 304.336 63.5543C304.307 63.5543 304.278 63.5543 304.249 63.5547L294.526 63.5547C292.806 63.5547 291.412 64.9497 291.412 66.6706L291.412 76.4863ZM291.412 76.4863C291.412 69.3733 297.152 63.6015 304.249 63.5547L304.423 63.5547C311.492 63.6015 317.213 69.3261 317.26 76.3991L317.26 76.5731C317.213 83.675 311.445 89.418 304.336 89.418C297.199 89.418 291.412 83.6283 291.412 76.4863Z" fill="white" fill-opacity="0.3"/>
<path fill-rule="evenodd" clip-rule="evenodd" d="M55.2987 76.6817L55.2987 66.8659C55.2987 65.145 53.9046 63.75 52.1848 63.75L42.375 63.75L32.5654 63.75C30.8456 63.75 29.4515 65.145 29.4515 66.8659L29.4515 76.5944C29.4513 76.6238 29.4512 76.6527 29.4512 76.6817C29.4512 76.7106 29.4513 76.7395 29.4515 76.7689L29.4515 86.4974C29.4515 88.2183 30.8456 89.6133 32.5654 89.6133L42.288 89.6133C42.317 89.6133 42.346 89.6133 42.375 89.6133C42.404 89.6133 42.433 89.6133 42.462 89.6133L52.1848 89.6133C53.9046 89.6133 55.2987 88.2183 55.2987 86.4974L55.2987 76.6817ZM55.2987 76.6817C55.2987 83.7947 49.5597 89.5665 42.462 89.6133L42.288 89.6133C35.2194 89.5665 29.4981 83.8418 29.4515 76.7689L29.4515 76.5944C29.4983 69.4925 35.2664 63.75 42.375 63.75C49.5126 63.75 55.2987 69.5397 55.2987 76.6817Z" fill="white" fill-opacity="0.3"/>
<path fill-rule="evenodd" clip-rule="evenodd" d="M405.209 76.7802L405.187 66.964C405.183 65.2432 403.786 63.8513 402.067 63.8553L392.256 63.8767L382.447 63.8985C380.727 63.902 379.336 65.3002 379.34 67.021L379.361 76.75C379.361 76.7789 379.361 76.8078 379.361 76.8372C379.361 76.8661 379.361 76.8951 379.362 76.924L379.383 86.6525C379.387 88.3734 380.784 89.7653 382.504 89.7617L392.227 89.7403C392.256 89.7403 392.284 89.7403 392.313 89.7403C392.343 89.7403 392.372 89.7399 392.401 89.7399L402.124 89.7185C403.843 89.7145 405.234 88.3164 405.23 86.5956L405.209 76.7802ZM405.209 76.7802C405.225 83.8928 399.498 89.6771 392.401 89.7399L392.227 89.7403C385.158 89.7092 379.424 83.997 379.362 76.924L379.361 76.75C379.392 69.6481 385.148 63.8927 392.256 63.8767C399.394 63.8611 405.193 69.6383 405.209 76.7802Z" fill="white" fill-opacity="0.3"/>
<path fill-rule="evenodd" clip-rule="evenodd" d="M116.707 76.5125L116.729 86.3283C116.733 88.0492 118.13 89.4411 119.85 89.4375L129.659 89.4157L139.469 89.3943C141.189 89.3903 142.58 87.9922 142.576 86.2714L142.555 76.5428C142.555 76.5134 142.555 76.4845 142.555 76.4556C142.555 76.4266 142.555 76.3977 142.554 76.3683L142.533 66.6398C142.529 64.9189 141.132 63.5271 139.412 63.5311L129.69 63.5524C129.66 63.5524 129.631 63.5524 129.603 63.5524C129.574 63.5524 129.544 63.5524 129.515 63.5529L119.793 63.5742C118.073 63.5778 116.682 64.9759 116.686 66.6968L116.707 76.5125ZM116.707 76.5125C116.691 69.3995 122.418 63.6152 129.515 63.5529L129.69 63.5524C136.758 63.5836 142.492 69.2958 142.554 76.3683L142.555 76.5428C142.524 83.6447 136.768 89.4001 129.659 89.4157C122.522 89.4317 116.723 83.6545 116.707 76.5125Z" fill="white" fill-opacity="0.3"/>
</g>
<defs>
<clipPath id="clip0_1538_53562">
<rect width="521.284" height="262.715" fill="white" transform="translate(0.273438 -83.0586)"/>
</clipPath>
</defs>
</svg>
