<?xml version="1.0" standalone="no"?>
<!DOCTYPE svg PUBLIC "-//W3C//DTD SVG 20010904//EN"
 "http://www.w3.org/TR/2001/REC-SVG-20010904/DTD/svg10.dtd">
<svg version="1.0" xmlns="http://www.w3.org/2000/svg"
 width="700.000000pt" height="700.000000pt" viewBox="0 0 700.000000 700.000000"
 preserveAspectRatio="xMidYMid meet">
<metadata>
Created by potrace 1.14, written by Peter Selinger 2001-2017
</metadata>
<g transform="translate(0.000000,700.000000) scale(0.100000,-0.100000)"
fill="#000000" stroke="none">
<path d="M3389 6996 c-2 -2 -23 -6 -46 -10 -211 -28 -462 -167 -595 -330 -24
-28 -45 -53 -48 -56 -15 -13 -93 -146 -115 -196 -65 -147 -85 -252 -90 -477
-6 -303 -31 -452 -112 -662 -28 -71 -100 -201 -147 -265 -99 -133 -290 -279
-463 -354 -92 -40 -247 -89 -320 -101 -18 -3 -45 -7 -60 -9 -77 -13 -152 -18
-298 -21 -88 -2 -175 -6 -192 -9 -18 -3 -46 -8 -62 -11 -51 -9 -161 -45 -226
-76 -265 -122 -482 -388 -551 -674 -10 -42 -12 -51 -19 -101 -21 -153 -6 -322
41 -462 99 -299 337 -541 631 -643 187 -65 405 -70 600 -13 330 95 594 363
686 694 31 111 37 154 42 310 6 173 18 264 54 420 36 158 125 359 220 498 107
156 260 288 435 375 92 45 218 92 279 103 17 3 34 7 38 10 21 13 231 33 359
34 199 2 265 11 399 57 165 56 332 174 449 317 87 106 167 266 196 396 81 356
-15 709 -260 956 -62 62 -174 154 -189 154 -3 0 -23 11 -45 25 -112 71 -281
115 -456 120 -73 2 -133 2 -135 1z"/>
<path d="M1618 6305 c-2 -1 -27 -6 -56 -9 -66 -8 -155 -37 -236 -78 -64 -32
-177 -104 -211 -135 -11 -10 -43 -38 -70 -63 -208 -187 -335 -436 -329 -645 3
-98 8 -126 40 -189 50 -99 124 -166 217 -196 145 -46 364 13 579 156 193 128
302 264 399 499 24 56 41 150 45 236 9 231 -101 393 -281 415 -22 3 -52 7 -67
9 -15 1 -28 2 -30 0z"/>
<path d="M5260 6298 c-108 -19 -217 -99 -269 -198 -45 -87 -52 -232 -16 -365
33 -126 139 -312 245 -432 84 -95 270 -210 430 -264 85 -29 107 -33 210 -33
131 0 177 14 248 79 161 145 176 379 42 651 -52 107 -147 243 -209 301 -203
193 -475 297 -681 261z"/>
<path d="M3458 4515 c-2 -2 -30 -5 -63 -8 -92 -9 -123 -15 -194 -38 -591 -193
-872 -855 -600 -1414 190 -393 599 -615 1032 -561 369 46 702 325 821 690 51
156 64 364 32 511 -21 99 -40 153 -81 242 -142 304 -444 526 -775 569 -43 6
-169 12 -172 9z"/>
<path d="M5780 4469 c-85 -15 -105 -20 -155 -36 -155 -50 -287 -132 -405 -252
-92 -92 -141 -161 -194 -269 -79 -160 -96 -245 -111 -552 -8 -161 -15 -208
-50 -350 -74 -296 -220 -546 -415 -712 -147 -124 -395 -243 -572 -272 -18 -3
-42 -7 -53 -10 -57 -11 -155 -19 -290 -21 -82 -2 -172 -6 -198 -9 -430 -54
-792 -404 -861 -833 -48 -303 62 -613 303 -850 351 -348 876 -400 1282 -129
171 114 320 310 389 511 35 103 52 223 55 400 2 94 6 188 9 210 3 22 8 62 11
88 8 72 50 243 79 320 124 326 361 558 685 671 179 62 292 78 558 78 201 1
302 15 429 63 450 169 720 642 639 1120 -72 424 -399 756 -821 829 -86 15
-242 18 -314 5z"/>
<path d="M5739 2024 c-308 -62 -607 -312 -728 -610 -159 -390 14 -703 378
-690 107 4 195 26 289 74 131 67 215 139 367 315 55 63 133 211 163 308 68
219 35 400 -93 518 -92 85 -225 115 -376 85z"/>
<path d="M1050 1997 c-3 -3 -19 -7 -36 -10 -93 -14 -203 -99 -248 -190 -89
-182 -35 -441 144 -695 189 -268 431 -406 695 -397 111 4 134 9 210 45 75 36
106 65 135 126 65 134 62 325 -9 504 -115 289 -339 499 -627 590 -64 20 -252
39 -264 27z"/>
</g>
</svg>
